<?xml version="1.0" encoding="UTF-8" standalone="no"?>
<!-- Created with Inkscape (http://www.inkscape.org/) -->

<svg
   width="297mm"
   height="297mm"
   viewBox="0 0 297 297"
   version="1.1"
   id="svg5"
   sodipodi:docname="Main_Circle.svg"
   inkscape:version="1.1.1 (3bf5ae0d25, 2021-09-20)"
   xmlns:inkscape="http://www.inkscape.org/namespaces/inkscape"
   xmlns:sodipodi="http://sodipodi.sourceforge.net/DTD/sodipodi-0.dtd"
   xmlns="http://www.w3.org/2000/svg"
   xmlns:svg="http://www.w3.org/2000/svg">
  <defs
     id="defs2" />
  <g
     inkscape:label="Layer 1"
     inkscape:groupmode="layer"
     id="layer1">
    <path
       id="path846"
       style="fill:#000000;stroke-width:9.34974;stroke-linejoin:round"
       d="M 148.50001,2.4e-5 A 148.5,148.5 0 0 0 3e-5,148.50001 148.5,148.5 0 0 0 148.50001,296.99998 148.5,148.5 0 0 0 296.99997,148.50001 148.5,148.5 0 0 0 148.50001,2.4e-5 Z m 0,14.850257 A 133.64999,133.64999 0 0 1 282.15024,148.50001 133.64999,133.64999 0 0 1 148.50001,282.15024 133.64999,133.64999 0 0 1 14.85028,148.50001 133.64999,133.64999 0 0 1 148.50001,14.850281 Z M 68.21395,50.335453 v 76.760167 h 3.79719 c 4.52061,-29.112766 11.30171,-49.274579 20.34294,-60.485707 7.41381,-9.041234 18.17277,-13.561965 32.2771,-13.561965 3.25484,0 5.1533,0.09048 5.69577,0.271301 1.08495,0.361651 1.62781,2.893446 1.62781,7.594886 V 207.1109 c 0,5.06309 -0.3619,8.22719 -1.0852,9.49296 -0.54248,1.08495 -1.89859,2.07968 -4.06849,2.9838 -2.16989,0.7233 -6.32872,1.35612 -12.47676,1.89859 -6.14803,0.54248 -14.37572,0.8139 -24.68273,0.8139 v 2.98328 h 117.98815 v -2.98328 c -10.48783,0 -18.80599,-0.27142 -24.95403,-0.8139 -6.14804,-0.54247 -10.30686,-1.17529 -12.47676,-1.89859 -2.1699,-0.90412 -3.43553,-1.7179 -3.79719,-2.44119 -0.7233,-1.4466 -1.0852,-4.79165 -1.0852,-10.03557 V 60.642834 c 0,-4.158967 0.3619,-6.509814 1.0852,-7.052281 0.36166,-0.361651 2.35059,-0.542605 5.96708,-0.542605 14.46598,0 25.4059,4.611206 32.8197,13.833266 9.04124,11.030304 15.64138,31.282592 19.80034,60.757006 h 3.79719 V 50.335453 Z M 98.5382,227.38408 c -2.19401,0 -4.16486,0.84502 -5.9123,2.53421 -1.92219,1.86394 -2.88355,4.22294 -2.88355,7.07709 0,2.97065 0.96136,5.3783 2.88355,7.22282 1.7086,1.63094 3.67946,2.44636 5.9123,2.44636 2.19401,0 4.16434,-0.85454 5.91178,-2.56315 1.92218,-1.88335 2.88355,-4.25187 2.88355,-7.10603 0,-2.97065 -0.96137,-5.36877 -2.88355,-7.19387 -1.70861,-1.61153 -3.67894,-2.41743 -5.91178,-2.41743 z m 39.95777,0 c -2.19401,0 -4.16487,0.84502 -5.9123,2.53421 -1.92219,1.86394 -2.88303,4.22294 -2.88303,7.07709 0,2.97065 0.96084,5.3783 2.88303,7.22282 1.7086,1.63094 3.67946,2.44636 5.9123,2.44636 2.194,0 4.16485,-0.85454 5.91229,-2.56315 1.92219,-1.88335 2.88303,-4.25187 2.88303,-7.10603 0,-2.97065 -0.96084,-5.36877 -2.88303,-7.19387 -1.7086,-1.61153 -3.67945,-2.41743 -5.91229,-2.41743 z m 35.41489,0 -4.92218,13.68857 c -0.64073,1.76686 -1.16478,2.93181 -1.57252,3.49488 -0.73781,1.00963 -1.77638,1.51412 -3.11609,1.51412 v 0.32039 h 7.36803 v -0.32039 c -0.99022,0 -1.75699,-0.15495 -2.30063,-0.46561 -0.54365,-0.31065 -0.81546,-0.82518 -0.81546,-1.54357 0,-0.46598 0.11634,-1.01964 0.34933,-1.66037 l 0.90279,-2.56263 h 5.6503 l 1.86397,5.12579 0.0579,0.29093 c 0,0.33008 -0.27181,0.55375 -0.81545,0.67025 -0.54365,0.0971 -1.54362,0.14521 -2.99982,0.14521 v 0.32039 h 10.71769 v -0.32039 c -1.4562,0 -2.32979,-0.0677 -2.62103,-0.20361 -0.29124,-0.15532 -0.58261,-0.63124 -0.87385,-1.4273 l -6.26163,-17.06666 z m 20.06647,0 -4.92218,13.68857 c -0.64073,1.76686 -1.16478,2.93181 -1.57251,3.49488 -0.73781,1.00963 -1.7769,1.51412 -3.11661,1.51412 v 0.32039 h 7.36855 v -0.32039 c -0.99022,0 -1.75699,-0.15495 -2.30064,-0.46561 -0.54365,-0.31065 -0.81545,-0.82518 -0.81545,-1.54357 0,-0.46598 0.11634,-1.01964 0.34933,-1.66037 l 0.90279,-2.56263 h 5.6503 l 1.86396,5.12579 0.0579,0.29093 c 0,0.33008 -0.2718,0.55375 -0.81545,0.67025 -0.54365,0.0971 -1.54362,0.14521 -2.99982,0.14521 v 0.32039 h 10.71769 v -0.32039 c -1.45619,0 -2.32979,-0.0677 -2.62102,-0.20361 -0.29124,-0.15532 -0.58261,-0.63124 -0.87385,-1.4273 l -6.26164,-17.06666 z M 71.8313,227.61714 v 8.24239 h 0.40773 c 0.4854,-3.12597 1.21356,-5.2909 2.18436,-6.49469 0.79606,-0.9708 1.95149,-1.45624 3.46594,-1.45624 0.34949,0 0.55308,0.01 0.61133,0.0289 0.1165,0.0388 0.17467,0.31064 0.17467,0.81545 v 15.69775 c 0,0.54365 -0.0386,0.88367 -0.11627,1.01958 -0.0583,0.11649 -0.2042,0.22331 -0.43719,0.32039 -0.23299,0.0777 -0.67931,0.14536 -1.33945,0.20361 -0.66014,0.0582 -1.54377,0.0873 -2.65049,0.0873 v 0.32039 h 12.669 v -0.32039 c -1.12613,0 -2.01928,-0.0291 -2.67942,-0.0873 -0.66015,-0.0583 -1.10647,-0.12595 -1.33946,-0.20361 -0.23299,-0.0971 -0.36889,-0.18433 -0.40772,-0.262 -0.0777,-0.15533 -0.11679,-0.51491 -0.11679,-1.07797 v -15.72669 c 0,-0.44657 0.0391,-0.69881 0.11679,-0.75706 0.0388,-0.0388 0.25247,-0.0584 0.64078,-0.0584 1.55329,0 2.72777,0.49496 3.52382,1.48518 0.9708,1.18437 1.6794,3.35882 2.12597,6.52363 h 0.40772 v -8.30027 z m 26.7069,0 c 1.65036,0 2.88301,0.79638 3.69848,2.38849 0.83489,1.59211 1.25264,3.92202 1.25264,6.98975 0,3.0289 -0.42728,5.35881 -1.28158,6.98976 -0.83489,1.61152 -2.05801,2.4169 -3.66954,2.4169 -1.63095,0 -2.86411,-0.80538 -3.699,-2.4169 -0.81547,-1.63095 -1.22318,-3.96086 -1.22318,-6.98976 0,-3.06773 0.40771,-5.39764 1.22318,-6.98975 0.83489,-1.59211 2.06805,-2.38849 3.699,-2.38849 z m 9.52345,0 v 0.29146 c 1.74743,0 2.90236,0.10682 3.46542,0.32039 0.21358,0.0777 0.33996,0.1554 0.37879,0.23306 0.0777,0.13592 0.11627,0.47542 0.11627,1.01906 v 14.96963 c 0,0.64073 -0.0677,1.01935 -0.20361,1.13585 l -0.43666,0.17518 c -0.17475,0.0583 -0.57293,0.12594 -1.19424,0.20361 -0.62132,0.0777 -1.32992,0.11627 -2.12597,0.11627 v 0.32039 h 11.21275 v -0.32039 c -0.71839,0 -1.36882,-0.0291 -1.9513,-0.0873 -0.58248,-0.0583 -0.99019,-0.12595 -1.22318,-0.20361 -0.21358,-0.0971 -0.33996,-0.18433 -0.37879,-0.262 -0.0777,-0.15533 -0.11627,-0.51491 -0.11627,-1.07797 v -5.59139 l 2.4169,-2.35903 4.31033,8.35815 0.26252,0.52451 c 0.0194,0.0583 0.0289,0.12595 0.0289,0.20361 0,0.23299 -0.19407,0.37893 -0.5824,0.43718 -0.3689,0.0583 -1.15523,0.0873 -2.35902,0.0873 v 0.29094 h 10.10584 v -0.29094 c -1.41737,0 -2.301,-0.0777 -2.65049,-0.23306 -0.33007,-0.17474 -0.69865,-0.64062 -1.10639,-1.39784 l -5.56297,-10.4557 1.92237,-1.9513 c 1.86393,-1.92218 3.05798,-3.04853 3.58221,-3.3786 0.83489,-0.52424 1.71852,-0.786 2.65048,-0.786 v -0.29146 h -8.21289 v 0.29146 c 1.04846,0 1.84432,0.12586 2.38797,0.37827 0.54364,0.23299 0.81545,0.59257 0.81545,1.07797 0,0.6019 -0.45636,1.35914 -1.36891,2.2717 l -6.6399,6.61096 v -8.76639 c 0,-0.64073 0.0677,-1.01935 0.2036,-1.13585 l 0.29146,-0.11627 c 0.56306,-0.21357 1.70845,-0.32039 3.43648,-0.32039 v -0.29146 z m 30.43432,0 c 1.65035,0 2.88352,0.79638 3.69899,2.38849 0.83489,1.59211 1.25212,3.92202 1.25212,6.98975 0,3.0289 -0.42727,5.35881 -1.28157,6.98976 -0.83489,1.61152 -2.05802,2.4169 -3.66954,2.4169 -1.63095,0 -2.8636,-0.80538 -3.69849,-2.4169 -0.81547,-1.63095 -1.22318,-3.96086 -1.22318,-6.98976 0,-3.06773 0.40771,-5.39764 1.22318,-6.98975 0.83489,-1.59211 2.06754,-2.38849 3.69849,-2.38849 z m 11.62047,0 v 7.28121 h 0.40773 c 0.36891,-3.30072 1.26206,-5.38791 2.67942,-6.26163 0.79606,-0.4854 2.5628,-0.72812 5.30046,-0.72812 0.64072,0 0.96118,0.0873 0.96118,0.262 0,0.13591 -0.46588,0.92224 -1.39785,2.35903 l -10.3389,15.87241 h 16.28014 v -8.79532 h -0.40773 c -0.29124,2.81532 -0.85441,4.84434 -1.6893,6.08696 -0.73781,1.10671 -1.87368,1.80579 -3.40754,2.09703 -0.81548,0.15533 -2.55313,0.23306 -5.21312,0.23306 -0.6019,0 -0.90279,-0.0777 -0.90279,-0.23306 0,-0.11649 0.46588,-0.88326 1.39785,-2.30064 l 10.3389,-15.87293 z m 54.31607,0 v 0.29146 c 1.35912,0 2.38817,0.36858 3.08715,1.10639 0.58248,0.62131 0.87385,1.47585 0.87385,2.56315 v 9.90224 c 0,1.8251 -0.28133,3.04823 -0.8444,3.66954 -0.56306,0.62132 -1.60215,0.93173 -3.1166,0.93173 v 0.32039 h 8.47545 v -0.32039 c -1.59211,0 -2.67985,-0.34902 -3.26233,-1.048 -0.58248,-0.69897 -0.87333,-2.11669 -0.87333,-4.25245 v -9.49451 c 0,-0.34949 0.0291,-0.524 0.0873,-0.524 l 0.32039,0.37879 11.62048,15.37735 h 0.66973 v -13.97951 c 0,-1.76685 0.2718,-2.98046 0.81545,-3.6406 0.54365,-0.66015 1.50449,-0.99012 2.88303,-0.99012 v -0.29146 h -8.24187 v 0.29146 c 1.57269,0 2.65992,0.32997 3.26181,0.99012 0.6019,0.66014 0.90279,1.87375 0.90279,3.6406 v 8.09615 c 0,0.38832 -0.0291,0.58291 -0.0873,0.58291 -0.0582,0 -0.21372,-0.16499 -0.46612,-0.49506 l -10.10585,-13.10618 z m -31.80323,4.485 2.67942,7.39748 h -5.35884 z m 20.06648,0 2.67942,7.39748 h -5.35884 z" />
  </g>
</svg>
