<?xml version="1.0" encoding="UTF-8" standalone="no"?>
<!-- Created with Inkscape (http://www.inkscape.org/) -->

<svg
   width="101.678"
   height="101.678"
   viewBox="0 0 26.902305 26.902305"
   version="1.1"
   id="svg5"
   sodipodi:docname="Main_Circle_Small.svg"
   inkscape:version="1.1.1 (3bf5ae0d25, 2021-09-20)"
   xmlns:inkscape="http://www.inkscape.org/namespaces/inkscape"
   xmlns:sodipodi="http://sodipodi.sourceforge.net/DTD/sodipodi-0.dtd"
   xmlns="http://www.w3.org/2000/svg"
   xmlns:svg="http://www.w3.org/2000/svg">
  <defs
     id="defs2" />
  <g
     inkscape:label="Layer 1"
     inkscape:groupmode="layer"
     id="layer1">
    <path
       id="path846"
       style="fill:#000000;stroke-width:0.846901;stroke-linejoin:round"
       d="M 13.451152,2.2690455e-6 A 13.451154,13.451154 0 0 0 2.2690455e-6,13.451152 13.451154,13.451154 0 0 0 13.451152,26.902302 13.451154,13.451154 0 0 0 26.902302,13.451152 13.451154,13.451154 0 0 0 13.451152,2.2690455e-6 Z m 0,1.3451400309545 A 12.106038,12.106038 0 0 1 25.557212,13.451152 12.106038,12.106038 0 0 1 13.451152,25.557212 12.106038,12.106038 0 0 1 1.3451423,13.451152 12.106038,12.106038 0 0 1 13.451152,1.3451423 Z m -7.2723197,3.21425 v 6.9529497 h 0.34395 c 0.40947,-2.6370397 1.02371,-4.4632997 1.84266,-5.4788097 0.67155,-0.81895 1.6460997,-1.22844 2.9236697,-1.22844 0.29482,0 0.46679,0.008 0.51592,0.0246 0.0983,0.0328 0.14745,0.26209 0.14745,0.68795 V 18.760172 c 0,0.45861 -0.0328,0.74522 -0.0983,0.85987 -0.0491,0.0983 -0.17197,0.18838 -0.36852,0.27027 -0.19655,0.0655 -0.57326,0.12284 -1.13015,0.17198 -0.5568897,0.0491 -1.3021497,0.0737 -2.2357697,0.0737 v 0.27023 H 18.807132 v -0.27023 c -0.94999,0 -1.70345,-0.0246 -2.26034,-0.0737 -0.55689,-0.0491 -0.9336,-0.10646 -1.13015,-0.17198 -0.19655,-0.0819 -0.31119,-0.1556 -0.34395,-0.22112 -0.0655,-0.13103 -0.0983,-0.43403 -0.0983,-0.90902 V 5.4930723 c 0,-0.37672 0.0328,-0.58966 0.0983,-0.6388 0.0328,-0.0328 0.21292,-0.0491 0.5405,-0.0491 1.31033,0 2.30127,0.41768 2.97282,1.25302 0.81895,0.99913 1.41679,2.83358 1.79351,5.5033797 h 0.34395 V 4.5594723 Z m 2.74677,16.0370897 c -0.19873,0 -0.37725,0.0765 -0.53554,0.22955 -0.17411,0.16884 -0.26119,0.38252 -0.26119,0.64105 0,0.26908 0.0871,0.48716 0.26119,0.65424 0.15477,0.14773 0.33329,0.22159 0.53554,0.22159 0.19874,0 0.37721,-0.0774 0.53549,-0.23217 0.17411,-0.17059 0.26119,-0.38513 0.26119,-0.64366 0,-0.26908 -0.0871,-0.48631 -0.26119,-0.65162 -0.15476,-0.14598 -0.33324,-0.21898 -0.53549,-0.21898 z m 3.6193797,0 c -0.19873,0 -0.37725,0.0765 -0.53553,0.22955 -0.17412,0.16884 -0.26115,0.38252 -0.26115,0.64105 0,0.26908 0.087,0.48716 0.26115,0.65424 0.15476,0.14773 0.33328,0.22159 0.53553,0.22159 0.19874,0 0.37726,-0.0774 0.53554,-0.23217 0.17411,-0.17059 0.26114,-0.38513 0.26114,-0.64366 0,-0.26908 -0.087,-0.48631 -0.26114,-0.65162 -0.15477,-0.14598 -0.33329,-0.21898 -0.53554,-0.21898 z m 3.20789,0 -0.44585,1.23992 c -0.058,0.16004 -0.10551,0.26556 -0.14244,0.31656 -0.0668,0.0915 -0.16091,0.13715 -0.28226,0.13715 v 0.029 h 0.6674 v -0.029 c -0.0897,0 -0.15915,-0.014 -0.20839,-0.0422 -0.0493,-0.0281 -0.0739,-0.0747 -0.0739,-0.13982 0,-0.0422 0.0105,-0.0924 0.0317,-0.15039 l 0.0818,-0.23213 h 0.51181 l 0.16884,0.4643 0.005,0.0263 c 0,0.0299 -0.0246,0.0502 -0.0739,0.0607 -0.0493,0.009 -0.13983,0.0131 -0.27173,0.0131 v 0.029 h 0.97081 v -0.029 c -0.1319,0 -0.21103,-0.006 -0.23741,-0.0184 -0.0264,-0.0141 -0.0528,-0.0572 -0.0791,-0.12928 l -0.56718,-1.54591 z m 1.81762,0 -0.44585,1.23992 c -0.058,0.16004 -0.1055,0.26556 -0.14244,0.31656 -0.0668,0.0915 -0.16095,0.13715 -0.2823,0.13715 v 0.029 h 0.66745 v -0.029 c -0.0897,0 -0.15915,-0.014 -0.2084,-0.0422 -0.0492,-0.0281 -0.0739,-0.0747 -0.0739,-0.13982 0,-0.0422 0.0105,-0.0924 0.0316,-0.15039 l 0.0818,-0.23213 h 0.5118 l 0.16884,0.4643 0.005,0.0263 c 0,0.0299 -0.0246,0.0502 -0.0739,0.0607 -0.0492,0.009 -0.13982,0.0131 -0.27172,0.0131 v 0.029 h 0.97081 v -0.029 c -0.13191,0 -0.21104,-0.006 -0.23742,-0.0184 -0.0264,-0.0141 -0.0528,-0.0572 -0.0792,-0.12928 l -0.56718,-1.54591 z m -11.0639997,0.0211 v 0.74659 h 0.0369 c 0.044,-0.28315 0.10992,-0.47925 0.19786,-0.58829 0.0721,-0.0879 0.17676,-0.1319 0.31394,-0.1319 0.0317,0 0.0501,9e-4 0.0554,0.003 0.0105,0.004 0.0158,0.0281 0.0158,0.0739 v 1.4219 c 0,0.0493 -0.004,0.08 -0.0105,0.0924 -0.005,0.0105 -0.0185,0.0202 -0.0396,0.029 -0.0211,0.007 -0.0615,0.0132 -0.12133,0.0184 -0.0598,0.005 -0.13983,0.008 -0.24008,0.008 v 0.029 h 1.14756 v -0.029 c -0.10201,0 -0.18291,-0.003 -0.2427,-0.008 -0.0598,-0.005 -0.10023,-0.0114 -0.12133,-0.0184 -0.0211,-0.009 -0.0334,-0.0167 -0.0369,-0.0237 -0.007,-0.0141 -0.0106,-0.0466 -0.0106,-0.0976 v -1.42452 c 0,-0.0404 0.004,-0.0633 0.0106,-0.0686 0.004,-0.004 0.0229,-0.005 0.058,-0.005 0.1407,0 0.24708,0.0448 0.31919,0.13453 0.0879,0.10728 0.15212,0.30424 0.19257,0.59091 h 0.0369 v -0.75184 z m 2.41911,0 c 0.14949,0 0.26115,0.0721 0.33501,0.21634 0.0756,0.14422 0.11347,0.35526 0.11347,0.63314 0,0.27436 -0.0387,0.4854 -0.11609,0.63313 -0.0756,0.14597 -0.18642,0.21892 -0.33239,0.21892 -0.14773,0 -0.25943,-0.0729 -0.33505,-0.21892 -0.0739,-0.14773 -0.1108,-0.35877 -0.1108,-0.63313 0,-0.27788 0.0369,-0.48892 0.1108,-0.63314 0.0756,-0.14421 0.18732,-0.21634 0.33505,-0.21634 z m 0.86264,0 v 0.0264 c 0.15828,0 0.2628897,0.01 0.3138997,0.029 0.0193,0.007 0.0308,0.0141 0.0343,0.0211 0.007,0.0123 0.0105,0.0431 0.0105,0.0923 v 1.35596 c 0,0.058 -0.006,0.0923 -0.0184,0.10288 l -0.0396,0.0159 c -0.0158,0.005 -0.0519,0.0114 -0.1081697,0.0184 -0.0563,0.007 -0.12047,0.0105 -0.19257,0.0105 v 0.029 h 1.0156497 v -0.029 c -0.0651,0 -0.12399,-0.003 -0.17675,-0.008 -0.0528,-0.005 -0.0897,-0.0114 -0.11079,-0.0185 -0.0194,-0.009 -0.0308,-0.0167 -0.0343,-0.0237 -0.007,-0.0141 -0.0105,-0.0466 -0.0105,-0.0976 v -0.50647 l 0.21893,-0.21368 0.39043,0.75708 0.0238,0.0475 c 0.002,0.005 0.003,0.0114 0.003,0.0184 0,0.0211 -0.0176,0.0343 -0.0528,0.0396 -0.0334,0.005 -0.10464,0.008 -0.21368,0.008 v 0.0263 h 0.91539 v -0.0263 c -0.12839,0 -0.20843,-0.007 -0.24008,-0.0211 -0.0299,-0.0158 -0.0633,-0.058 -0.10022,-0.12662 l -0.5039,-0.94708 0.17413,-0.17674 c 0.16884,-0.17412 0.277,-0.27614 0.32448,-0.30604 0.0756,-0.0475 0.15566,-0.0712 0.24008,-0.0712 v -0.0264 h -0.74392 v 0.0264 c 0.095,0 0.16705,0.0114 0.2163,0.0343 0.0492,0.0211 0.0739,0.0537 0.0739,0.0976 0,0.0545 -0.0413,0.12311 -0.12399,0.20577 l -0.60145,0.59882 v -0.79406 c 0,-0.058 0.006,-0.0923 0.0185,-0.10288 l 0.0264,-0.0105 c 0.051,-0.0194 0.15475,-0.029 0.31127,-0.029 v -0.0264 z m 2.7567397,0 c 0.14949,0 0.26119,0.0721 0.33506,0.21634 0.0756,0.14422 0.11342,0.35526 0.11342,0.63314 0,0.27436 -0.0387,0.4854 -0.11609,0.63313 -0.0756,0.14597 -0.18641,0.21892 -0.33239,0.21892 -0.14773,0 -0.25938,-0.0729 -0.33501,-0.21892 -0.0739,-0.14773 -0.11079,-0.35877 -0.11079,-0.63313 0,-0.27788 0.0369,-0.48892 0.11079,-0.63314 0.0756,-0.14421 0.18728,-0.21634 0.33501,-0.21634 z m 1.05259,0 v 0.65953 h 0.0369 c 0.0334,-0.29898 0.11432,-0.48804 0.2427,-0.56718 0.0721,-0.044 0.23214,-0.066 0.48012,-0.066 0.058,0 0.0871,0.008 0.0871,0.0237 0,0.0123 -0.0422,0.0835 -0.12662,0.21368 l -0.93649,1.43772 h 1.47465 v -0.79668 h -0.0369 c -0.0264,0.25502 -0.0774,0.4388 -0.15302,0.55136 -0.0668,0.10025 -0.16971,0.16357 -0.30865,0.18995 -0.0739,0.0141 -0.23126,0.0211 -0.47221,0.0211 -0.0545,0 -0.0818,-0.007 -0.0818,-0.0211 0,-0.0105 0.0422,-0.08 0.12662,-0.20839 l 0.9365,-1.43777 z m 4.91996,0 v 0.0264 c 0.12311,0 0.21632,0.0334 0.27963,0.10021 0.0528,0.0563 0.0791,0.13369 0.0791,0.23217 v 0.89695 c 0,0.16532 -0.0255,0.27611 -0.0765,0.33239 -0.051,0.0563 -0.14513,0.0844 -0.2823,0.0844 v 0.029 h 0.7677 v -0.029 c -0.14421,0 -0.24274,-0.0316 -0.2955,-0.0949 -0.0528,-0.0633 -0.0791,-0.19173 -0.0791,-0.38519 v -0.86002 c 0,-0.0316 0.003,-0.0475 0.008,-0.0475 l 0.029,0.0343 1.05259,1.39288 h 0.0607 v -1.26626 c 0,-0.16004 0.0246,-0.26997 0.0739,-0.32977 0.0492,-0.0598 0.13627,-0.0897 0.26114,-0.0897 v -0.0264 h -0.74655 v 0.0264 c 0.14246,0 0.24094,0.0299 0.29546,0.0897 0.0545,0.0598 0.0818,0.16973 0.0818,0.32977 v 0.73335 c 0,0.0352 -0.003,0.0528 -0.008,0.0528 -0.005,0 -0.0194,-0.0149 -0.0422,-0.0448 l -0.91539,-1.18716 z m -2.88075,0.40625 0.24271,0.67006 h -0.48541 z m 1.81763,0 0.2427,0.67006 h -0.4854 z" />
  </g>
</svg>
